<mxfile host="app.diagrams.net" modified="2023-04-27T19:39:11.430Z" agent="Mozilla/5.0 (Windows NT 10.0; Win64; x64) AppleWebKit/537.36 (KHTML, like Gecko) Chrome/112.0.0.0 Safari/537.36" version="21.2.3" etag="9rS9eq8KtoXDi_clqIaz" type="github">
  <diagram name="Страница 1" id="VKTcH8rYtFQZBUi-jpe1">
    <mxGraphModel>
      <root>
        <mxCell id="0" />
        <mxCell id="1" parent="0" />
      </root>
    </mxGraphModel>
  </diagram>
</mxfile>
